<?xml version="1.0" encoding="utf-8"?>
<!-- generated at drububu.com  -->
<!DOCTYPE svg PUBLIC "-//W3C//DTD SVG 1.1//EN" "http://www.w3.org/Graphics/SVG/1.1/DTD/svg11.dtd">
<svg version="1.1" preserveAspectRatio="xMinYMin meet" xmlns="http://www.w3.org/2000/svg" xmlns:xlink="http://www.w3.org/1999/xlink" x="0px" y="0px" width="16px" height="16px" viewBox="0 0 16 16">
<path d="M0 0h3v2h-1v2h1v2h-1v3h1v1h1v1h1v3h1v2h-6z" fill="rgb(0,0,0)"/>
<path d="M3 0h1v1h1v2h-1v-1h-1z" fill="rgb(0,0,6)"/>
<path d="M4 0h1v1h-1z" fill="rgb(185,144,27)"/>
<path d="M5 0h1v1h-1z" fill="rgb(0,0,6)"/>
<path d="M6 0h3v1h-1v1h-1v-1h-1z" fill="rgb(0,0,0)"/>
<path d="M9 0h1v1h-1z" fill="rgb(0,0,6)"/>
<path d="M10 0h1v1h-1z" fill="rgb(185,144,27)"/>
<path d="M11 0h1v2h-1v1h-1v-2h1z" fill="rgb(0,0,6)"/>
<path d="M12 0h4v16h-7v-2h1v-3h1v-1h1v-1h1v-3h-1v-2h1v-2h-1z" fill="rgb(0,0,0)"/>
<path d="M5 1h1v2h-1z" fill="rgb(185,144,27)"/>
<path d="M6 1h1v1h1v-1h1v2h1v2h-1v-1h-1v-1h-1v1h-1v1h-1v-2h1z" fill="rgb(0,0,6)"/>
<path d="M9 1h1v2h-1z" fill="rgb(185,144,27)"/>
<path d="M2 2h1v2h-1z" fill="rgb(0,0,6)"/>
<path d="M3 2h1v1h-1z" fill="rgb(251,194,40)"/>
<path d="M11 2h1v1h-1z" fill="rgb(251,194,40)"/>
<path d="M12 2h1v2h-1z" fill="rgb(0,0,6)"/>
<path d="M3 3h1v1h-1z" fill="rgb(185,144,27)"/>
<path d="M4 3h1v1h-1z" fill="rgb(251,194,40)"/>
<path d="M7 3h1v1h-1z" fill="rgb(185,144,27)"/>
<path d="M10 3h1v1h-1z" fill="rgb(251,194,40)"/>
<path d="M11 3h1v1h-1z" fill="rgb(185,144,27)"/>
<path d="M3 4h1v1h1v1h-2z" fill="rgb(0,0,6)"/>
<path d="M4 4h1v1h-1z" fill="rgb(185,144,27)"/>
<path d="M6 4h3v2h-1v2h2v-2h2v1h-1v2h-1v1h-2v-1h-1v1h-2v-1h-1v-2h-1v-1h2v2h2v-2
	h-1z" fill="rgb(251,194,40)"/>
<path d="M10 4h1v1h-1z" fill="rgb(185,144,27)"/>
<path d="M11 4h1v2h-2v-1h1z" fill="rgb(0,0,6)"/>
<path d="M5 5h1v1h-1z" fill="rgb(185,144,27)"/>
<path d="M9 5h1v1h-1z" fill="rgb(185,144,27)"/>
<path d="M2 6h1v3h-1z" fill="rgb(0,0,6)"/>
<path d="M5 6h1v1h-1z" fill="rgb(255,255,255)"/>
<path d="M6 6h1v2h-1z" fill="rgb(185,144,27)"/>
<path d="M8 6h1v2h-1z" fill="rgb(185,144,27)"/>
<path d="M9 6h1v1h-1z" fill="rgb(255,255,255)"/>
<path d="M12 6h1v3h-1z" fill="rgb(0,0,6)"/>
<path d="M3 7h1v2h-1z" fill="rgb(185,144,27)"/>
<path d="M5 7h1v1h-1z" fill="rgb(0,0,6)"/>
<path d="M9 7h1v1h-1z" fill="rgb(0,0,6)"/>
<path d="M11 7h1v2h-1z" fill="rgb(185,144,27)"/>
<path d="M3 9h1v1h-1z" fill="rgb(0,0,6)"/>
<path d="M4 9h1v1h-1z" fill="rgb(185,144,27)"/>
<path d="M7 9h1v1h-1z" fill="rgb(0,0,6)"/>
<path d="M10 9h1v1h-1z" fill="rgb(185,144,27)"/>
<path d="M11 9h1v1h-1z" fill="rgb(0,0,6)"/>
<path d="M4 10h1v1h-1z" fill="rgb(0,0,6)"/>
<path d="M5 10h1v1h-1z" fill="rgb(185,144,27)"/>
<path d="M6 10h1v1h-1z" fill="rgb(0,0,6)"/>
<path d="M7 10h1v1h-1z" fill="rgb(185,144,27)"/>
<path d="M8 10h1v1h-1z" fill="rgb(0,0,6)"/>
<path d="M9 10h1v1h-1z" fill="rgb(185,144,27)"/>
<path d="M10 10h1v1h-1z" fill="rgb(0,0,6)"/>
<path d="M5 11h1v1h1v1h-1v1h-1z" fill="rgb(0,0,6)"/>
<path d="M6 11h3v1h-1v3h-1v-3h-1z" fill="rgb(251,194,40)"/>
<path d="M9 11h1v3h-1v-1h-1v-1h1z" fill="rgb(0,0,6)"/>
<path d="M6 13h1v1h-1z" fill="rgb(185,144,27)"/>
<path d="M8 13h1v1h-1z" fill="rgb(185,144,27)"/>
<path d="M6 14h1v1h-1z" fill="rgb(0,0,6)"/>
<path d="M8 14h1v1h-1z" fill="rgb(0,0,6)"/>
<path d="M6 15h1v1h-1z" fill="rgb(255,255,255)"/>
<path d="M7 15h1v1h-1z" fill="rgb(0,0,6)"/>
<path d="M8 15h1v1h-1z" fill="rgb(255,255,255)"/>
</svg>
